# xmcd
#
# Track frame offsets:
# 150
# 9839
# 25639
# 41014
# 55470
# 76668
# 91285
# 106035
# 124809
# 140721
# 154197
# 167581
# 181933
# 197110
# 214657
# 230011
# 246985
# 262459
# 281662
# 295750
# 309404
# 321354
#
# Disc length: 4565 seconds
#
#
# Revision: 3
# Processed by: cddbd v1.5.2PL0 Copyright (c) Steve Scherf et al.
# Submitted via: FreeRIP 2.942 
#
DISCID=3811d316
DTITLE=אמנים שונים - ארבע אחרי הצהריים
DYEAR=2005
DGENRE=Pop-Folk
TTITLE0=יעל לוי - תמונה
TTITLE1=חוה אלברשטיין - משירי ארץ אהבתי
TTITLE2=רוחמה רז וצוות הווי חיטבת הצנחנים - בארץ אהבתי השקט פורח
TTITLE3=הדודאים והפרברים - שי
TTITLE4=אריק סיני - גן השקמים
TTITLE5=מזי כהן ודפנה ארמוני - דצמבר
TTITLE6=יהורם גאון - בפרדס ליד השוקת
TTITLE7=הדודאים והפרברים - צל ומי באר
TTITLE8=ירדנה ארזי - אתה לי ארץ
TTITLE9=ירדן בר כוכבא ו''בנות בראון'' - אומרים ישנה ארץ
TTITLE10=בנות בצל ירוק 80 - אסיף
TTITLE11=חוה אלברשטיין - החיטה צומחת שוב
TTITLE12=הפרברים - אור וירושלים
TTITLE13=יהודית רביץ - עין גדי
TTITLE14=אריק איינשטיין - בית הערבה
TTITLE15=אריק לביא - שיר ההד
TTITLE16=שלישיית קצה השדה - ערב בא
TTITLE17=שלום חנוך - לילה
TTITLE18=שוקי ודורית - גן נעול
TTITLE19=אריק סיני - לא פעם בקיץ
TTITLE20=עירית סנדנר - ניגונים
TTITLE21=להקת פיקוד צפון - עוד לא תמו כל פלאייך
EXTD=
EXTT0=
EXTT1=
EXTT2=
EXTT3=
EXTT4=
EXTT5=
EXTT6=
EXTT7=
EXTT8=
EXTT9=
EXTT10=
EXTT11=
EXTT12=
EXTT13=
EXTT14=
EXTT15=
EXTT16=
EXTT17=
EXTT18=
EXTT19=
EXTT20=
EXTT21=
PLAYORDER=
